<svg width="62" height="59" viewBox="0 0 62 59" fill="none" xmlns="http://www.w3.org/2000/svg">
<g filter="url(#filter0_d_102_194)">
<path fill-rule="evenodd" clip-rule="evenodd" d="M8.25 9.33333C7.92783 9.33333 7.66666 9.5945 7.66666 9.91666V46.0833C7.66666 46.4055 7.92783 46.6667 8.25 46.6667H15.6654L35.6658 25.6136C37.2472 23.9489 39.8899 23.9151 41.5135 25.5387L54.3333 38.3585V9.91666C54.3333 9.5945 54.0722 9.33333 53.75 9.33333H8.25ZM53.75 50.1667H16.4265H16.4063H8.25C5.99484 50.1667 4.16666 48.3385 4.16666 46.0833V9.91666C4.16666 7.6615 5.99484 5.83333 8.25 5.83333H53.75C56.0052 5.83333 57.8333 7.6615 57.8333 9.91666V46.0833C57.8333 48.3385 56.0052 50.1667 53.75 50.1667ZM38.2033 28.0243L20.493 46.6667H53.75C54.0722 46.6667 54.3333 46.4055 54.3333 46.0833V43.3082L39.0387 28.0136C38.8067 27.7816 38.4292 27.7864 38.2033 28.0243ZM24 21.5833C24 23.8385 22.1718 25.6667 19.9167 25.6667C17.6615 25.6667 15.8333 23.8385 15.8333 21.5833C15.8333 19.3282 17.6615 17.5 19.9167 17.5C22.1718 17.5 24 19.3282 24 21.5833ZM27.5 21.5833C27.5 25.7715 24.1048 29.1667 19.9167 29.1667C15.7285 29.1667 12.3333 25.7715 12.3333 21.5833C12.3333 17.3952 15.7285 14 19.9167 14C24.1048 14 27.5 17.3952 27.5 21.5833Z" fill="#BDBDBD"/>
</g>
<defs>
<filter id="filter0_d_102_194" x="-1" y="0" width="64" height="64" filterUnits="userSpaceOnUse" color-interpolation-filters="sRGB">
<feFlood flood-opacity="0" result="BackgroundImageFix"/>
<feColorMatrix in="SourceAlpha" type="matrix" values="0 0 0 0 0 0 0 0 0 0 0 0 0 0 0 0 0 0 127 0" result="hardAlpha"/>
<feOffset dy="4"/>
<feGaussianBlur stdDeviation="2"/>
<feComposite in2="hardAlpha" operator="out"/>
<feColorMatrix type="matrix" values="0 0 0 0 0 0 0 0 0 0 0 0 0 0 0 0 0 0 0.25 0"/>
<feBlend mode="normal" in2="BackgroundImageFix" result="effect1_dropShadow_102_194"/>
<feBlend mode="normal" in="SourceGraphic" in2="effect1_dropShadow_102_194" result="shape"/>
</filter>
</defs>
</svg>
